<svg fill="#FFFFFF" xmlns="http://www.w3.org/2000/svg"  viewBox="0 0 72 72" width="50px" height="50px"><path d="M 22.134766 15 C 7.9997656 15 8 33.497937 8 40.460938 C 8 57.153937 18.413 58 20.5 58 C 26.736 58 29.413672 53.414828 31.013672 50.673828 C 32.359672 48.369828 32.739531 48 33.269531 48 L 38.728516 48 C 39.266516 48 39.650719 48.371406 41.011719 50.691406 C 42.614719 53.424406 45.298 58 51.5 58 C 53.587 58 64 57.153938 64 40.460938 C 64 33.497937 63.999234 15 49.865234 15 C 45.932234 15 40.086453 16.488 38.189453 17 L 33.8125 17 C 31.9145 16.488 26.067766 15 22.134766 15 z M 22.134766 23 C 24.995766 23 30.358594 24.334609 32.183594 24.849609 C 32.536594 24.948609 32.902531 25 33.269531 25 L 38.728516 25 C 39.095516 25 39.461453 24.949609 39.814453 24.849609 C 41.639453 24.334609 47.004234 23 49.865234 23 C 51.383234 23 56 22.999938 56 40.460938 C 56 43.329937 55.562 50 51.5 50 C 50.123 50 49.587063 49.498531 47.914062 46.644531 C 46.362062 43.999531 44.018469 40 38.730469 40 L 33.271484 40 C 27.982484 40 25.649469 43.995672 24.105469 46.638672 C 22.437469 49.497672 21.897 50 20.5 50 C 17.683 50 16 46.433937 16 40.460938 C 16 22.999938 20.616766 23 22.134766 23 z M 47 27 C 45.895 27 45 27.895 45 29 C 45 30.105 45.895 31 47 31 C 48.105 31 49 30.105 49 29 C 49 27.895 48.105 27 47 27 z M 24 28 C 23.448 28 23 28.448 23 29 L 23 31 L 21 31 C 20.448 31 20 31.448 20 32 L 20 34 C 20 34.552 20.448 35 21 35 L 23 35 L 23 37 C 23 37.552 23.448 38 24 38 L 26 38 C 26.552 38 27 37.552 27 37 L 27 35 L 29 35 C 29.552 35 30 34.552 30 34 L 30 32 C 30 31.448 29.552 31 29 31 L 27 31 L 27 29 C 27 28.448 26.552 28 26 28 L 24 28 z M 43 31 C 41.895 31 41 31.895 41 33 C 41 34.105 41.895 35 43 35 C 44.105 35 45 34.105 45 33 C 45 31.895 44.105 31 43 31 z M 51 31 C 49.895 31 49 31.895 49 33 C 49 34.105 49.895 35 51 35 C 52.105 35 53 34.105 53 33 C 53 31.895 52.105 31 51 31 z M 47 35 C 45.895 35 45 35.895 45 37 C 45 38.105 45.895 39 47 39 C 48.105 39 49 38.105 49 37 C 49 35.895 48.105 35 47 35 z"/></svg>