<svg xmlns="http://www.w3.org/2000/svg" xmlns:xlink="http://www.w3.org/1999/xlink" version="1.1" x="0px" y="0px" viewBox="0 0 512 640" style="enable-background:new 0 0 512 512;" xml:space="preserve"><path d="M395.227,224.644c-5.243-13.83-18.701-23.122-33.489-23.122h-96.533v-7.41c0-8.655,7.041-15.693,15.693-15.693h27.524  c16.249,0,29.471-13.225,29.471-29.471c0-16.249-13.225-29.471-29.471-29.471H163.579c-3.797,0-6.889,3.092-6.889,6.889  s3.092,6.889,6.889,6.889h144.844c8.655,0,15.693,7.041,15.693,15.693c0,8.652-7.041,15.693-15.693,15.693h-27.524  c-16.249,0-29.471,13.225-29.471,29.471v7.41H150.221c-14.788,0-28.246,9.292-33.489,23.122L78.305,325.831  c-8.587,22.602,0.841,48.561,21.945,60.356c23.155,12.989,52.173,5.411,66.036-17.239l16.097-26.347h147.196  c10.056,12.103,19.742,49.922,58.037,49.922c34.536,0,58.118-34.899,46.041-66.692L395.227,224.644z M404.991,374.191  c-16.686,9.308-37.554,3.897-47.552-12.433l-18.112-29.64c-1.261-2.034-3.477-3.293-5.88-3.293h-79.798h-75.128  c-2.403,0-4.622,1.261-5.88,3.293l-18.096,29.64c-9.981,16.333-30.869,21.761-47.571,12.433  c-15.188-8.503-21.977-27.204-15.793-43.486l38.427-101.187c3.225-8.503,11.511-14.215,20.619-14.215h211.517  c9.108,0,17.391,5.712,20.619,14.215l38.427,101.187C426.969,346.987,420.18,365.688,404.991,374.191z M194.968,261.577H176.82  v-18.148c0-3.797-3.092-6.889-6.889-6.889c-3.797,0-6.889,3.092-6.889,6.889v18.148h-18.164c-3.797,0-6.889,3.092-6.889,6.889  s3.092,6.889,6.889,6.889h18.164v18.148c0,3.797,3.092,6.889,6.889,6.889c3.797,0,6.889-3.092,6.889-6.889v-18.148h18.148  c3.797,0,6.889-3.092,6.889-6.889S198.765,261.577,194.968,261.577z M338.454,286.055c-4.114,0-7.449,3.338-7.449,7.452  c0,4.117,3.335,7.452,7.449,7.452c4.117,0,7.452-3.335,7.452-7.452C345.906,289.389,342.571,286.055,338.454,286.055z   M338.454,235.97c-4.114,0-7.449,3.338-7.449,7.452c0,4.117,3.335,7.452,7.449,7.452c4.117,0,7.452-3.335,7.452-7.452  C345.906,239.308,342.571,235.97,338.454,235.97z M363.498,261.011c4.116,0,7.452,3.336,7.452,7.452s-3.336,7.452-7.452,7.452  c-4.116,0-7.452-3.336-7.452-7.452S359.382,261.011,363.498,261.011z M313.414,261.011c4.116,0,7.452,3.336,7.452,7.452  s-3.336,7.452-7.452,7.452c-4.116,0-7.452-3.336-7.452-7.452S309.298,261.011,313.414,261.011z M275.42,294.073h-35.015  c-3.797,0-6.889,3.092-6.889,6.889c0,3.797,3.092,6.889,6.889,6.889h35.018c3.797,0,6.889-3.092,6.889-6.889  C282.312,297.165,279.22,294.073,275.42,294.073z"/></svg>