<svg fill="#FFFFFF" xmlns="http://www.w3.org/2000/svg"  viewBox="0 0 72 72" width="64px" height="64px"><path d="M 47.662109 7.9453125 C 46.646234 7.9390625 45.628203 8.3180313 44.845703 9.0820312 L 9.2070312 43.828125 C 8.4400312 44.574125 8.007 45.597016 8 46.666016 C 7.993 47.735016 8.414875 48.762531 9.171875 49.519531 L 22.535156 62.882812 C 23.315156 63.662812 24.339281 64.054688 25.363281 64.054688 C 26.371281 64.054688 27.378297 63.675969 28.154297 62.917969 L 63.792969 28.171875 C 64.559969 27.425875 64.993 26.402984 65 25.333984 C 65.007 24.263984 64.585125 23.237469 63.828125 22.480469 L 50.464844 9.1171875 C 49.690844 8.3431875 48.677984 7.9515625 47.662109 7.9453125 z M 47.601562 17.566406 L 55.306641 25.273438 L 25.398438 54.433594 L 17.691406 46.726562 L 21.724609 42.792969 L 23.832031 44.900391 C 24.223031 45.291391 24.734094 45.486328 25.246094 45.486328 C 25.758094 45.486328 26.269156 45.291391 26.660156 44.900391 C 27.441156 44.119391 27.441156 42.853266 26.660156 42.072266 L 24.589844 40.001953 L 27.169922 37.486328 L 31.365234 41.681641 C 31.756234 42.072641 32.267297 42.267578 32.779297 42.267578 C 33.291297 42.267578 33.802359 42.072641 34.193359 41.681641 C 34.974359 40.900641 34.974359 39.634516 34.193359 38.853516 L 30.033203 34.695312 L 32.582031 32.208984 L 34.552734 34.181641 C 34.943734 34.572641 35.454797 34.767578 35.966797 34.767578 C 36.478797 34.767578 36.989859 34.572641 37.380859 34.181641 C 38.161859 33.400641 38.161859 32.134516 37.380859 31.353516 L 35.445312 29.417969 L 38.025391 26.902344 L 42.585938 31.460938 C 42.976938 31.851938 43.486047 32.046875 43.998047 32.046875 C 44.510047 32.046875 45.021109 31.851937 45.412109 31.460938 C 46.193109 30.679938 46.193109 29.413812 45.412109 28.632812 L 40.890625 24.109375 L 47.601562 17.566406 z M 48 23 C 46.895 23 46 23.895 46 25 C 46 26.105 46.895 27 48 27 C 49.105 27 50 26.105 50 25 C 50 23.895 49.105 23 48 23 z"/></svg>