<svg fill="#FFFFFF" xmlns="http://www.w3.org/2000/svg"  viewBox="0 0 72 72" width="128px" height="128px"><path d="M 20 12 C 17.791 12 16 13.791 16 16 L 16 21 C 14.343 21 13 22.343 13 24 C 13 25.657 14.343 27 16 27 L 16 29 C 14.343 29 13 30.343 13 32 C 13 33.657 14.343 35 16 35 L 16 37 C 14.343 37 13 38.343 13 40 C 13 41.657 14.343 43 16 43 L 16 45 C 14.343 45 13 46.343 13 48 C 13 49.657 14.343 51 16 51 L 16 56 C 16 58.209 17.791 60 20 60 L 47 60 C 52.514 60 57 55.514 57 50 L 57 22 C 57 16.486 52.514 12 47 12 L 20 12 z M 24 20 L 47 20 C 48.103 20 49 20.897 49 22 L 49 50 C 49 51.103 48.103 52 47 52 L 24 52 L 24 51 C 25.657 51 27 49.657 27 48 C 27 46.343 25.657 45 24 45 L 24 43 C 25.657 43 27 41.657 27 40 C 27 38.343 25.657 37 24 37 L 24 35 C 25.657 35 27 33.657 27 32 C 27 30.343 25.657 29 24 29 L 24 27 C 25.657 27 27 25.657 27 24 C 27 22.343 25.657 21 24 21 L 24 20 z M 31 24 C 29.896 24 29 24.896 29 26 L 29 33 C 29 34.104 29.896 35 31 35 L 44 35 C 45.104 35 46 34.104 46 33 L 46 26 C 46 24.896 45.104 24 44 24 L 31 24 z M 33 28 L 42 28 L 42 31 L 33 31 L 33 28 z M 31 38 C 29.896 38 29 38.896 29 40 C 29 41.104 29.896 42 31 42 L 44 42 C 45.104 42 46 41.104 46 40 C 46 38.896 45.104 38 44 38 L 31 38 z M 31 44 C 29.896 44 29 44.896 29 46 C 29 47.104 29.896 48 31 48 L 39 48 C 40.104 48 41 47.104 41 46 C 41 44.896 40.104 44 39 44 L 31 44 z"/></svg>