<svg xmlns="http://www.w3.org/2000/svg" width="128" height="128" fill="#FFF" viewBox="0 0 72 72"><path d="M 13 12 C 9.686 12 7 14.686 7 18 L 7 54 C 7 57.314 9.686 60 13 60 L 59 60 C 62.314 60 65 57.314 65 54 L 65 18 C 65 14.686 62.314 12 59 12 L 13 12 z M 16 20 L 56 20 C 56.552 20 57 20.448 57 21 L 57 44.505859 L 49.166016 37.304688 C 47.102016 35.407688 43.926187 35.412453 41.867188 37.314453 L 32.861328 45.630859 L 27.927734 41.412109 C 25.906734 39.683109 22.927109 39.689781 20.912109 41.425781 L 15 46.519531 L 15 21 C 15 20.448 15.448 20 16 20 z M 27 24 C 24.791 24 23 25.791 23 28 C 23 30.209 24.791 32 27 32 C 29.209 32 31 30.209 31 28 C 31 25.791 29.209 24 27 24 z"/></svg>