<svg xmlns="http://www.w3.org/2000/svg" width="50" height="50" fill="#FFF" viewBox="0 0 72 72"><path d="M 58.117188 4.0078125 C 57.956006 4.0018437 57.793406 4.0086719 57.628906 4.0292969 C 38.733906 6.3812969 32.881187 15.703563 31.242188 19.601562 C 29.624971 23.447729 29.650179 27.366739 31.238281 30.416016 C 30.575417 31.778025 30.066337 33.004493 29.722656 34 L 22 34 C 20.343 34 19 35.343 19 37 C 19 38.657 20.343 40 22 40 L 37 40 C 38.657 40 40 38.657 40 37 C 40 35.343 38.657 34 37 34 L 35.070312 34 C 35.207818 33.673688 35.382906 33.312803 35.550781 32.955078 C 46.037265 32.48696 50.036278 25.103681 53.560547 18.544922 C 55.467547 14.995922 57.269469 11.644813 59.980469 9.2578125 C 60.969469 8.3888125 61.276328 6.9753906 60.736328 5.7753906 C 60.262953 4.7245156 59.245459 4.0495937 58.117188 4.0078125 z M 50.552734 11.621094 C 49.747734 12.969094 49.007344 14.345078 48.277344 15.705078 C 45.654558 20.583247 43.554219 24.142621 40.046875 25.855469 C 40.980339 24.695405 42.039767 23.495561 43.267578 22.267578 C 44.244578 21.291578 44.243578 19.709422 43.267578 18.732422 C 42.291578 17.755422 40.709422 17.755422 39.732422 18.732422 C 38.627541 19.837303 37.642197 20.928317 36.748047 21.998047 C 36.757742 21.974532 36.765495 21.951255 36.775391 21.927734 C 38.686391 17.380734 43.637734 13.747094 50.552734 11.621094 z M 23 42 C 21.485 42 20.100875 42.855938 19.421875 44.210938 C 18.975875 45.102938 18.437453 45.827062 17.814453 46.664062 C 16.115453 48.948062 14 51.79 14 58 C 14 60.209 15.791 62 18 62 L 41 62 C 43.209 62 45 60.209 45 58 C 45 51.79 42.885547 48.948062 41.185547 46.664062 C 40.562547 45.827062 40.024125 45.103938 39.578125 44.210938 C 38.900125 42.855938 37.515 42 36 42 L 23 42 z M 25.271484 50.001953 L 33.728516 50.001953 C 34.083516 50.523953 34.435578 50.996406 34.767578 51.441406 C 35.369578 52.251406 35.870188 52.921937 36.242188 53.710938 C 36.304187 53.842938 36.202641 54 36.056641 54 L 22.943359 54 C 22.797359 54 22.696766 53.842938 22.759766 53.710938 C 23.131766 52.921938 23.629422 52.251406 24.232422 51.441406 C 24.564422 50.996406 24.916484 50.523953 25.271484 50.001953 z"/></svg>