<svg xmlns="http://www.w3.org/2000/svg" width="50" height="50" fill="#FFF" viewBox="0 0 72 72"><path d="M 43 10 C 39.681 10 37 12.691 37 16 C 37 19.309 39.681 22 43 22 C 46.319 22 49 19.309 49 16 C 49 12.691 46.319 10 43 10 z M 38 24 C 37.289477 24 36.610517 24.129155 35.978516 24.355469 L 27.380859 26.490234 C 26.291859 26.760234 25.341938 27.424563 24.710938 28.351562 L 19.523438 35.96875 L 19.53125 35.974609 C 19.203124 36.397612 19 36.923048 19 37.5 C 19 38.881 20.119 40 21.5 40 C 22.304592 40 23.011508 39.613622 23.46875 39.023438 L 23.476562 39.029297 L 28.662109 31.990234 L 31.355469 31.628906 L 29.279297 39.191406 C 29.263124 39.242623 29.251154 39.295859 29.236328 39.347656 L 29.181641 39.544922 L 29.185547 39.544922 C 29.068955 40.011833 29 40.497293 29 41 C 29 43.500032 30.53129 45.644438 32.710938 46.544922 L 40.029297 51.199219 L 43.142578 60.914062 L 43.15625 60.910156 C 43.543309 62.119218 44.662369 63 46 63 C 47.657 63 49 61.657 49 60 C 49 59.679976 48.936527 59.377077 48.84375 59.087891 L 48.855469 59.083984 L 46.058594 48.070312 C 45.915594 47.505312 45.625797 46.989219 45.216797 46.574219 L 40.890625 42.181641 L 43.708984 31.841797 C 43.896153 31.26111 44 30.642449 44 30 C 44 26.691 41.319 24 38 24 z M 45.966797 33.287109 L 44.439453 38.220703 L 45.246094 38.662109 C 45.627094 38.883109 46.06 39 46.5 39 L 53.5 39 C 54.881 39 56 37.881 56 36.5 C 56 35.119 54.881 34 53.5 34 L 47.171875 34 L 45.966797 33.287109 z M 27.177734 45.371094 L 25.060547 48.509766 L 18 49 C 16.343 49 15 50.343 15 52 C 15 53.657 16.343 55 18 55 L 26.927734 55 C 27.938734 55 28.902984 54.574125 29.583984 53.828125 L 33.248047 49.810547 L 27.177734 45.371094 z"/></svg>