<svg xmlns="http://www.w3.org/2000/svg" width="50" height="50" fill="#FFF" viewBox="0 0 72 72"><path d="M 36 7.3105469 C 33.791 7.3105469 32 9.1015469 32 11.310547 L 32 11.792969 C 20.582035 13.70532 11.851562 23.650676 11.851562 35.603516 C 11.851562 48.919516 22.684 59.753906 36 59.753906 C 49.316 59.753906 60.148438 48.919516 60.148438 35.603516 C 60.148438 30.336283 58.449356 25.46172 55.576172 21.488281 L 55.630859 21.433594 C 57.193859 19.871594 57.194812 17.337391 55.632812 15.775391 C 54.071813 14.213391 51.537609 14.214391 49.974609 15.775391 L 49.886719 15.863281 C 46.992712 13.821272 43.633178 12.401476 40 11.792969 L 40 11.310547 C 40 9.1015469 38.209 7.3105469 36 7.3105469 z M 36 19.455078 C 44.905 19.455078 52.148438 26.698516 52.148438 35.603516 C 52.148438 44.508516 44.905 51.753906 36 51.753906 C 27.095 51.753906 19.851562 44.508516 19.851562 35.603516 C 19.851562 26.698516 27.095 19.455078 36 19.455078 z M 36 22.511719 C 34.343 22.511719 33 23.854719 33 25.511719 L 33 34.123047 C 32.778063 34.571482 32.642578 35.069144 32.642578 35.603516 C 32.642578 37.458516 34.145 38.962891 36 38.962891 C 37.855 38.962891 39.357422 37.458516 39.357422 35.603516 C 39.357422 35.069144 39.221937 34.571482 39 34.123047 L 39 25.511719 C 39 23.854719 37.657 22.511719 36 22.511719 z"/></svg>