<svg xmlns="http://www.w3.org/2000/svg" width="50" height="50" fill="#FFF" viewBox="0 0 72 72"><path d="M 28 11 C 25.791 11 24 12.791 24 15 C 24 16.861621 25.277785 18.411326 27 18.857422 L 27 26.888672 C 27 28.285672 26.575437 29.631391 25.773438 30.775391 L 13.511719 48.263672 C 11.771719 50.744672 11.560984 53.954578 12.958984 56.642578 C 14.357984 59.329578 17.109672 61 20.138672 61 L 51.861328 61 C 54.891328 61 57.643969 59.329578 59.042969 56.642578 C 60.440969 53.953578 60.227281 50.742719 58.488281 48.261719 L 46.226562 30.775391 C 45.423563 29.630391 45 28.285672 45 26.888672 L 45 18.857422 C 46.722215 18.411326 48 16.861621 48 15 C 48 12.791 46.209 11 44 11 L 28 11 z M 35 19 L 37 19 L 37 26.888672 C 37 29.020258 37.461663 31.091052 38.332031 33 L 33.667969 33 C 34.538337 31.091052 35 29.020258 35 26.888672 L 35 19 z M 29.777344 39 L 42.222656 39 L 51.484375 52.212891 C 51.591375 52.365891 51.605531 52.565469 51.519531 52.730469 C 51.433531 52.895469 51.261219 53 51.074219 53 L 20.925781 52.996094 C 20.738781 52.996094 20.566469 52.893516 20.480469 52.728516 C 20.394469 52.562516 20.408625 52.363937 20.515625 52.210938 L 29.777344 39 z M 33 41 C 31.895 41 31 41.895 31 43 C 31 44.105 31.895 45 33 45 C 34.105 45 35 44.105 35 43 C 35 41.895 34.105 41 33 41 z M 39.5 44.076172 C 37.567 44.076172 36 45.625109 36 47.537109 C 36 49.449109 37.567 51 39.5 51 C 41.433 51 43 49.449109 43 47.537109 C 43 45.626109 41.433 44.076172 39.5 44.076172 z"/></svg>