<svg xmlns="http://www.w3.org/2000/svg" width="64" height="64" fill="#FFF" viewBox="0 0 72 72"><path d="M 36 11 C 29.383 11 24 16.607 24 23.5 C 24 30.393 29.383 36 36 36 C 42.617 36 48 30.393 48 23.5 C 48 16.607 42.617 11 36 11 z M 36 19 C 38.206 19 40 21.019 40 23.5 C 40 25.981 38.206 28 36 28 C 33.794 28 32 25.981 32 23.5 C 32 21.019 33.794 19 36 19 z M 36 37.142578 C 26.855 37.142578 18.822891 42.029625 15.712891 49.390625 C 13.425891 54.804625 17.354734 59 21.552734 59 L 50.447266 59 C 54.643266 59 58.574062 54.808531 56.289062 49.394531 C 53.182062 42.031531 45.147 37.142578 36 37.142578 z M 32.736328 45.472656 L 33.800781 47.599609 L 32.667969 51 L 24.697266 51 C 24.343266 51 24.158 50.593453 24.375 50.314453 C 26.243472 47.904462 29.265697 46.159951 32.736328 45.472656 z M 39.263672 45.472656 C 42.735436 46.159684 45.75819 47.904854 47.626953 50.314453 C 47.843953 50.594453 47.656734 51 47.302734 51 L 39.332031 51 L 38.199219 47.599609 L 39.263672 45.472656 z"/></svg>